<?xml version="1.0" standalone="no"?><!DOCTYPE svg PUBLIC "-//W3C//DTD SVG 1.1//EN" "http://www.w3.org/Graphics/SVG/1.1/DTD/svg11.dtd"><svg t="1510972585919" class="icon" style="" viewBox="0 0 1024 1024" version="1.1" xmlns="http://www.w3.org/2000/svg" p-id="1869" xmlns:xlink="http://www.w3.org/1999/xlink" width="14" height="14"><defs><style type="text/css"></style></defs><path d="M390.4 407.3152 32 407.3152l0-362.24 358.4 0L390.4 407.3152zM121.6 317.7152l208.64 0 0-212.48L121.6 105.2352 121.6 317.7152z" p-id="1870" fill="#cdcdcd"></path><path d="M151.04 165.3952l120.32 0 0 122.88-120.32 0 0-122.88Z" p-id="1871" fill="#cdcdcd"></path><path d="M390.4 979.4752 32 979.4752l0-362.24 358.4 0L390.4 979.4752zM121.6 919.3152l208.64 0 0-212.48L121.6 706.8352 121.6 919.3152z" p-id="1872" fill="#cdcdcd"></path><path d="M151.04 736.2752l120.32 0 0 122.88-120.32 0 0-122.88Z" p-id="1873" fill="#cdcdcd"></path><path d="M992 407.3152 633.6 407.3152l0-362.24 358.4 0L992 407.3152zM693.76 317.7152l208.64 0 0-212.48L693.76 105.2352 693.76 317.7152z" p-id="1874" fill="#cdcdcd"></path><path d="M752.64 165.3952l120.32 0 0 122.88-120.32 0 0-122.88Z" p-id="1875" fill="#cdcdcd"></path><path d="M32 407.3152l119.04 0 0 89.6-119.04 0 0-89.6Z" p-id="1876" fill="#cdcdcd"></path><path d="M271.36 496.9152l119.04 0 0 120.32-119.04 0 0-120.32Z" p-id="1877" fill="#cdcdcd"></path><path d="M513.28 45.0752l120.32 0 0 120.32-120.32 0 0-120.32Z" p-id="1878" fill="#cdcdcd"></path><path d="M390.4 288.2752l122.88 0 0 119.04-122.88 0 0-119.04Z" p-id="1879" fill="#cdcdcd"></path><path d="M513.28 859.1552l120.32 0 0 120.32-120.32 0 0-120.32Z" p-id="1880" fill="#cdcdcd"></path><path d="M752.64 859.1552l239.36 0 0 120.32-239.36 0 0-120.32Z" p-id="1881" fill="#cdcdcd"></path><path d="M513.28 617.2352l239.36 0 0 119.04-239.36 0 0-119.04Z" p-id="1882" fill="#cdcdcd"></path><path d="M752.64 617.2352l120.32 0 0 241.92-120.32 0 0-241.92Z" p-id="1883" fill="#cdcdcd"></path><path d="M842.24 617.2352l149.76 0 0 119.04-149.76 0 0-119.04Z" p-id="1884" fill="#cdcdcd"></path><path d="M513.28 407.3152l120.32 0 0 89.6-120.32 0 0-89.6Z" p-id="1885" fill="#cdcdcd"></path><path d="M633.6 496.9152l119.04 0 0 120.32-119.04 0 0-120.32Z" p-id="1886" fill="#cdcdcd"></path><path d="M752.64 407.3152l120.32 0 0 89.6-120.32 0 0-89.6Z" p-id="1887" fill="#cdcdcd"></path><path d="M872.96 496.9152l119.04 0 0 120.32-119.04 0 0-120.32Z" p-id="1888" fill="#cdcdcd"></path></svg>