<?xml version="1.0" standalone="no"?><!DOCTYPE svg PUBLIC "-//W3C//DTD SVG 1.1//EN" "http://www.w3.org/Graphics/SVG/1.1/DTD/svg11.dtd"><svg t="1510975095852" class="icon" style="" viewBox="0 0 1024 1024" version="1.1" xmlns="http://www.w3.org/2000/svg" p-id="22383" xmlns:xlink="http://www.w3.org/1999/xlink" width="14" height="14"><defs><style type="text/css"></style></defs><path d="M768.53 463.157h117.426v-119.462c0-45.392-36.926-82.317-82.317-82.317h-576.868c-45.38 0-82.317 36.926-82.317 82.317v453.508c0 45.392 36.937 82.317 82.317 82.317h576.868c45.392 0 82.317-36.926 82.317-82.317v-119.462h-117.426c-39.997 0-72.53-32.532-72.53-72.518v-69.535c0-39.997 32.532-72.53 72.53-72.53zM816.322 535.599c7.113 0 13.729 2.135 19.245 5.791v-40.404h-67.036c-19.134 0-34.702 15.567-34.702 34.702v69.535c0 19.134 15.567 34.69 34.702 34.69h67.036v-40.404c-5.516 3.655-12.132 5.791-19.245 5.791-19.245 0-34.845-15.6-34.845-34.845 0-19.255 15.6-34.855 34.845-34.855z" p-id="22384" fill="#039BE5"></path><path d="M835.566 599.508c-5.516 3.655-12.132 5.791-19.245 5.791-19.245 0-34.845-15.6-34.845-34.845 0-19.255 15.6-34.855 34.845-34.855 7.113 0 13.729 2.135 19.245 5.791 9.402 6.242 15.6 16.932 15.6 29.065 0 12.132-6.198 22.812-15.6 29.054zM768.53 463.157h-10.117c-34.47 0-62.412 27.941-62.412 62.412v10.117c0-39.997 32.532-72.53 72.53-72.53zM696.001 605.221v10.107c0 34.47 27.941 62.412 62.412 62.412h10.117c-39.997 0-72.53-32.532-72.53-72.518zM931.469 605.221v-69.535c0-19.134-15.567-34.702-34.702-34.702h-128.237c-19.134 0-34.702 15.567-34.702 34.702v69.535c0 19.134 15.567 34.69 34.702 34.69h128.237c19.134 0 34.702-15.556 34.702-34.69z" p-id="22385" fill="#039BE5"></path><path d="M583.051 225.786l-149.359-89.429c-35.021-20.973-80.589-9.534-101.562 25.487l-38.284 63.942h289.203z" p-id="22386" fill="#039BE5"></path></svg>