<?xml version="1.0" standalone="no"?><!DOCTYPE svg PUBLIC "-//W3C//DTD SVG 1.1//EN" "http://www.w3.org/Graphics/SVG/1.1/DTD/svg11.dtd"><svg t="1510975133642" class="icon" style="" viewBox="0 0 1024 1024" version="1.1" xmlns="http://www.w3.org/2000/svg" p-id="23293" xmlns:xlink="http://www.w3.org/1999/xlink" width="14" height="14"><defs><style type="text/css"></style></defs><path d="M512 0C229.218462 0 0 229.218462 0 512s229.218462 512 512 512 512-229.218462 512-512S794.781538 0 512 0zM700.652308 215.433846c59.470769 0 107.913846 48.443077 107.913846 107.913846 0 59.470769-48.443077 107.913846-107.913846 107.913846-59.470769 0-107.913846-48.443077-107.913846-107.913846C592.738462 263.876923 641.181538 215.433846 700.652308 215.433846zM323.347692 215.433846c59.470769 0 107.913846 48.443077 107.913846 107.913846 0 59.470769-48.443077 107.913846-107.913846 107.913846-59.470769 0-107.913846-48.443077-107.913846-107.913846C215.433846 263.876923 263.876923 215.433846 323.347692 215.433846zM516.726154 860.16c-385.969231 0-354.855385-321.378462-354.855385-321.378462l700.258462 0C862.129231 538.781538 903.089231 860.16 516.726154 860.16z" p-id="23294" fill="#FFC107"></path></svg>