<?xml version="1.0" standalone="no"?><!DOCTYPE svg PUBLIC "-//W3C//DTD SVG 1.1//EN" "http://www.w3.org/Graphics/SVG/1.1/DTD/svg11.dtd"><svg t="1510975228143" class="icon" style="" viewBox="0 0 1024 1024" version="1.1" xmlns="http://www.w3.org/2000/svg" p-id="24185" xmlns:xlink="http://www.w3.org/1999/xlink" width="14" height="14"><defs><style type="text/css"></style></defs><path d="M958.4 435v152.9H851.5c-9.3 39.2-24.6 75.9-46 110.1l75.9 75.9-108 108-75.9-77c-34.2 22.1-70.9 37.4-110.1 46v108H435.5v-108c-39.2-8.6-75.9-23.9-110.1-46l-75.9 77-108-108 75.9-75.9c-21.4-34.2-36.7-70.9-46-110.1H64.5V435h106.9c8.6-39.2 23.5-75.9 44.9-110.1L141.4 249l108-108 74.9 75.9c34.2-22.1 71.3-37.4 111.2-46V64h151.9v106.9c39.9 8.6 77 23.9 111.2 46l74.9-75.9 108 108-74.9 75.9C828 359.1 843 395.8 851.5 435h106.9zM509.3 273.5c-64.9 0-120.3 23-166.3 69-46 46-69 101.6-69 166.8 0 65.2 23 120.8 69 166.8 46 46 101.6 69 166.8 69 65.2 0 120.8-23 166.8-69 46-46 69-101.6 69-166.8 0-65.2-23-120.8-69-166.8s-101.7-69-167.3-69z" p-id="24186" fill="#039BE5"></path></svg>