<?xml version="1.0" standalone="no"?><!DOCTYPE svg PUBLIC "-//W3C//DTD SVG 1.1//EN" "http://www.w3.org/Graphics/SVG/1.1/DTD/svg11.dtd"><svg t="1510974689150" class="icon" style="" viewBox="0 0 1024 1024" version="1.1" xmlns="http://www.w3.org/2000/svg" p-id="2771" xmlns:xlink="http://www.w3.org/1999/xlink" width="14" height="14"><defs><style type="text/css"></style></defs><path d="M884.882286 299.446857c0-32.329143-26.185143-58.514286-58.514286-58.514286H198.509714c-32.329143 0-58.514286 26.185143-58.514285 58.514286v425.252572c0 32.329143 26.185143 58.514286 58.514285 58.514285h627.858286c32.329143 0 58.514286-26.185143 58.514286-58.514285v-115.565715H594.797714c-53.540571 0-96.987429-43.446857-96.987428-96.987428s43.446857-96.987429 96.987428-96.987429h289.938286v-115.712z" p-id="2772" fill="#039BE5"></path><path d="M720.749714 512c0 19.602286 15.945143 35.401143 35.401143 35.401143 19.602286 0 35.401143-15.945143 35.401143-35.401143 0-19.602286-15.945143-35.401143-35.401143-35.401143-19.602286 0-35.401143 15.798857-35.401143 35.401143z" p-id="2773" fill="#039BE5"></path></svg>