<?xml version="1.0" standalone="no"?><!DOCTYPE svg PUBLIC "-//W3C//DTD SVG 1.1//EN" "http://www.w3.org/Graphics/SVG/1.1/DTD/svg11.dtd"><svg t="1510022286312" class="icon" style="" viewBox="0 0 1024 1024" version="1.1" xmlns="http://www.w3.org/2000/svg" p-id="1887" xmlns:xlink="http://www.w3.org/1999/xlink" width="32" height="32"><defs><style type="text/css"></style></defs><path d="M928 480 544 480 544 96c0-17.664-14.336-32-32-32-17.68 0-32 14.336-32 32l0 384L96 480c-17.664 0-32 14.336-32 32 0 17.68 14.336 32 32 32l384 0 0 384c0 17.664 14.32 32 32 32 17.664 0 32-14.32 32-32L544 544l384 0c17.664 0 31.984-14.32 32-32C960 494.336 945.664 480 928 480z" p-id="1888" fill="#00cc00"></path></svg>