<?xml version="1.0" standalone="no"?><!DOCTYPE svg PUBLIC "-//W3C//DTD SVG 1.1//EN" "http://www.w3.org/Graphics/SVG/1.1/DTD/svg11.dtd"><svg t="1511145520826" class="icon" style="" viewBox="0 0 1024 1024" version="1.1" xmlns="http://www.w3.org/2000/svg" p-id="7170" xmlns:xlink="http://www.w3.org/1999/xlink" width="32" height="32"><defs><style type="text/css"></style></defs><path d="M957.719946 224.258577 755.04392 224.258577c-15.377222-11.072173-33.624818-30.608112-50.40397-65.24498-20.354584-42.032302-93.738941-43.335994-93.738941-43.335994L374.624724 115.677603c0 0-24.15412-5.997598-52.589752 42.857087-19.254529 33.082466-36.656875 53.582359-53.05638 65.723887L66.069253 224.258577c-36.494169 0-66.048275 31.331589-66.048275 69.939909l0 542.006408c0 38.622646 29.554106 69.946049 66.048275 69.946049l891.650693 0c36.501332 0 66.065671-31.322379 66.065671-69.946049L1023.785617 294.182113C1023.785617 255.573793 994.204905 224.258577 957.719946 224.258577zM511.780501 782.574439c-128.409578 0-232.506425-104.124476-232.506425-232.564753 0-128.442324 104.096846-232.571916 232.506425-232.571916 128.393205 0 232.506425 104.129592 232.506425 232.571916C744.286925 678.449963 640.173706 782.574439 511.780501 782.574439z" p-id="7171" fill="#ffffff"></path><path d="M93.387435 130.934075l108.319008 0 0 46.932915-108.319008 0 0-46.932915Z" p-id="7172" fill="#ffffff"></path><path d="M511.902274 363.748515c-102.729709 0-186.03502 83.288938-186.03502 186.027857 0 102.734826 83.305311 186.008414 186.03502 186.008414 102.752222 0 186.042183-83.274612 186.042183-186.008414C697.944458 447.037453 614.654496 363.748515 511.902274 363.748515z" p-id="7173" fill="#ffffff"></path></svg>