<?xml version="1.0" standalone="no"?><!DOCTYPE svg PUBLIC "-//W3C//DTD SVG 1.1//EN" "http://www.w3.org/Graphics/SVG/1.1/DTD/svg11.dtd"><svg t="1510649431440" class="icon" style="" viewBox="0 0 1024 1024" version="1.1" xmlns="http://www.w3.org/2000/svg" p-id="1883" xmlns:xlink="http://www.w3.org/1999/xlink" width="26" height="26"><defs><style type="text/css"></style></defs><path d="M512 1024C229.226667 1024 0 794.773333 0 512 0 229.226667 229.226667 0 512 0 794.773333 0 1024 229.226667 1024 512 1024 794.773333 794.773333 1024 512 1024ZM512 42.666667C252.8 42.666667 42.666667 252.778667 42.666667 512 42.666667 771.2 252.8 981.333333 512 981.333333 771.2 981.333333 981.333333 771.2 981.333333 512 981.333333 252.778667 771.2 42.666667 512 42.666667ZM580.906667 788.16C644.245333 713.706667 682.666667 617.408 682.666667 512 682.666667 406.570667 644.245333 310.272 580.906667 235.818667L613.397333 208.213333C683.072 290.112 725.333333 396.032 725.333333 512 725.333333 627.946667 683.072 733.888 613.397333 815.765333L580.906667 788.16ZM434.688 663.893333C469.525333 622.933333 490.666667 569.962667 490.666667 512 490.666667 454.016 469.525333 401.045333 434.688 360.106667L467.178667 332.48C508.352 380.885333 533.333333 443.477333 533.333333 512 533.333333 580.501333 508.352 643.114667 467.178667 691.498667L434.688 663.893333ZM304.554667 553.258667C314.048 542.101333 320 527.808 320 512 320 496.170667 314.048 481.898667 304.554667 470.72L336.917333 443.221333C352.746667 461.824 362.666667 485.632 362.666667 512 362.666667 538.346667 352.746667 562.154667 336.917333 580.757333L304.554667 553.258667Z" p-id="1884" fill="#cdcdcd"></path></svg>