<?xml version="1.0" standalone="no"?><!DOCTYPE svg PUBLIC "-//W3C//DTD SVG 1.1//EN" "http://www.w3.org/Graphics/SVG/1.1/DTD/svg11.dtd"><svg t="1510038681098" class="icon" style="" viewBox="0 0 1024 1024" version="1.1" xmlns="http://www.w3.org/2000/svg" p-id="1919" xmlns:xlink="http://www.w3.org/1999/xlink" width="16" height="16"><defs><style type="text/css"></style></defs><path d="M800 640v-192c0-160-89.6-294.4-236.8-332.8v-38.4c0-44.8-38.4-76.8-76.8-76.8s-76.8 32-76.8 76.8v38.4c-6.4 0-12.8 6.4-19.2 6.4-6.4 0-12.8 6.4-12.8 6.4l-38.4 19.2L800 640z m-531.2-448l-134.4-140.8-64 64 147.2 147.2c-25.6 51.2-44.8 115.2-44.8 179.2V704l-102.4 102.4v51.2H793.6L896 972.8l64-64-51.2-51.2-640-665.6z" fill="#cdcdcd" p-id="1920"></path></svg>