<?xml version="1.0" standalone="no"?><!DOCTYPE svg PUBLIC "-//W3C//DTD SVG 1.1//EN" "http://www.w3.org/Graphics/SVG/1.1/DTD/svg11.dtd"><svg t="1510022479681" class="icon" style="" viewBox="0 0 1024 1024" version="1.1" xmlns="http://www.w3.org/2000/svg" p-id="4787" xmlns:xlink="http://www.w3.org/1999/xlink" width="200" height="200"><defs><style type="text/css"></style></defs><path d="M814.08 500.736c0-12.288-10.24-22.528-22.528-22.528s-22.528 10.24-22.528 22.528c0 140.288-113.664 253.952-253.952 253.952-140.288 0-253.952-113.664-253.952-253.952 0-12.288-10.24-22.528-22.528-22.528s-22.528 10.24-22.528 22.528c0 2.048 0.512 9.216 0.512 9.728 5.12 155.136 128.512 280.576 283.136 288.256v180.224h-112.128c-12.288 0-22.528 10.24-22.528 22.528s10.24 22.528 22.528 22.528h268.8c12.288 0 22.528-10.24 22.528-22.528s-10.24-22.528-22.528-22.528h-112.128v-180.736c147.456-14.848 263.168-137.216 268.288-287.232 1.024-1.024 1.536-8.192 1.536-10.24z" fill="#bfbfbf" p-id="4788"></path><path d="M515.072 695.296c107.008 0 194.048-87.04 194.048-194.048v-299.008c0-107.008-87.04-194.048-194.048-194.048s-194.048 87.04-194.048 194.048v299.008c0 107.008 87.04 194.048 194.048 194.048z" fill="#bfbfbf" p-id="4789"></path></svg>