<?xml version="1.0" standalone="no"?><!DOCTYPE svg PUBLIC "-//W3C//DTD SVG 1.1//EN" "http://www.w3.org/Graphics/SVG/1.1/DTD/svg11.dtd"><svg class="icon" width="10px" height="10.00px" viewBox="0 0 1024 1024" version="1.1" xmlns="http://www.w3.org/2000/svg"><path fill="#039BE5" d="M944.655 240.576q0-2.834 0.472-8.030t-1.417-19.839-6.614-28.34-17.476-30.23-31.646-28.812-51.484-20.783-74.156-9.447q-147.367-2.834-204.992 111.47-16.058 33.063-19.838 60.458h-171.927q-0.945 0-3.779 0.945t-9.447 5.196-11.808 9.448-9.447 16.058-4.25 24.089q0.945 21.727 9.447 33.535t16.059 12.753l8.502 0.945h405.26q3.779 0 11.808 2.833t14.642 8.031 12.281 16.532 5.668 27.395q0.945 11.336 0.472 24.561t0 26.922 1.889 26.451 5.197 24.089 9.447 19.839 16.059 13.225 24.561 4.723q19.839 0 31.646-13.698t13.698-27.868l1.889-13.225zM100.127 793.203q0 3.779-0.472 8.502t1.417 19.839 6.614 28.34 17.476 29.757 31.646 28.812 51.484 20.783 74.156 9.447 76.517-8.030 57.152-24.089 39.676-34.008 26.923-36.369 15.587-34.48 7.557-25.034 1.417-9.919h170.984q1.889 0 4.723-0.945t9.447-4.723 11.808-9.448 9.447-16.532 4.25-24.089q-0.945-21.727-9.447-33.063t-16.058-12.281l-8.502-0.945h-400.536q-1.889 0-5.196-0.472t-11.336-3.306-14.642-8.031-12.281-16.532-5.668-26.451q-0.945-12.281-0.472-25.506t0-26.922-1.889-26.451-5.197-24.089-9.919-19.366-16.059-13.225-24.089-5.197q-13.224 0-22.672 5.667t-13.698 13.698-7.085 16.059-2.834 13.698l-0.945 5.668zM100.127 793.203z" /></svg>