<?xml version="1.0" standalone="no"?><!DOCTYPE svg PUBLIC "-//W3C//DTD SVG 1.1//EN" "http://www.w3.org/Graphics/SVG/1.1/DTD/svg11.dtd"><svg t="1510921622865" class="icon" style="" viewBox="0 0 1024 1024" version="1.1" xmlns="http://www.w3.org/2000/svg" p-id="6369" xmlns:xlink="http://www.w3.org/1999/xlink" width="28" height="28"><defs><style type="text/css"></style></defs><path d="M781.766027 961.610044H242.233973c-99.32517 0-179.844018-80.518848-179.844017-179.844017V242.233973c0-99.32517 80.518848-179.844018 179.844017-179.844017h539.532054c99.32517 0 179.844018 80.518848 179.844017 179.844017v539.532054c0 99.32517-80.518848 179.844018-179.844017 179.844017z" fill="#FFFFFF" p-id="6370"></path><path d="M512.335644 286.386566c-8.620331 0-17.087167 0.520863-25.417902 1.500167-20.414959 2.309602-39.98262 7.40976-58.377572 14.815427 0 0 151.677515 150.101623 155.716504 155.681712V298.31627c-4.520967-1.538029-9.138124-2.923586-13.794168-4.213975-18.526959-4.984524-38.019918-7.715729-58.126862-7.715729z" fill="#FA5452" p-id="6371"></path><path d="M670.768003 351.59573c-6.080485-6.080485-12.450567-11.700483-19.029402-16.912181a223.712131 223.712131 0 0 0-51.740408-30.787191s1.116427 213.326597 0 220.138746l113.217575-113.196085a230.28892 230.28892 0 0 0-6.813173-12.700253c-9.601682-16.623609-21.414729-32.344662-35.634592-46.543036z" fill="#6467F0" p-id="6372"></path><path d="M720.465892 428.599522S570.406225 580.258617 564.78725 584.297606h160.087045a232.55145 232.55145 0 0 0 4.193509-13.795191c5.001921-18.567891 7.736195-38.001499 7.736195-58.126862 0-8.601912-0.539282-17.087167-1.52268-25.417902a222.041072 222.041072 0 0 0-14.815427-58.358129z" fill="#5283F0" p-id="6373"></path><path d="M497.846652 601.153506L611.061157 714.350614a224.583988 224.583988 0 0 0 12.719696-6.810102c16.625656-9.564843 32.326243-21.396309 46.565548-35.634592 6.058996-6.062066 11.660574-12.450567 16.892739-19.029402 12.755512-16.08842 23.052019-33.499975 30.786167-51.742455-0.001023 0-213.346039 1.118474-220.178655 0.019443z" fill="#00B1FE" p-id="6374"></path><path d="M439.757652 565.595662v160.087045a229.489718 229.489718 0 0 0 13.796214 4.196579c18.549471 5.002944 38.003546 7.734148 58.129932 7.734148 8.579399 0 17.064654-0.539282 25.377994-1.50119a223.276203 223.276203 0 0 0 58.377572-14.835893c0.01842 0-151.641699-150.060691-155.681712-155.680689z" fill="#66D020" p-id="6375"></path><path d="M423.825798 498.828003l-113.177665 113.195061c2.118244 4.330632 4.408403 8.56405 6.813172 12.719696 9.56382 16.662495 21.395286 32.363082 35.634592 46.583968 6.061043 6.080485 12.449543 11.680017 19.029402 16.893763 16.10377 12.796444 33.480532 23.050995 51.759851 30.78412 0 0.001023-1.155313-213.345016-0.059352-220.176608z" fill="#9AD122" p-id="6376"></path><path d="M294.909683 453.592752c-4.983501 18.549471-7.714705 38.003546-7.714705 58.129932 0 8.580422 0.539282 17.084097 1.51961 25.39846 2.309602 20.433378 7.369851 40.002063 14.834869 58.358129 0 0 150.044318-151.659095 155.662269-155.681712h-160.106487c-1.539053 4.500501-2.924609 9.138124-4.195556 13.795191z" fill="#FFC817" p-id="6377"></path><path d="M399.139559 317.326229c-16.662495 9.582239-32.364105 21.416775-46.564525 35.615149-6.118348 6.099928-11.697413 12.488429-16.912181 19.029402a223.880977 223.880977 0 0 0-30.804587 51.77827s213.382878-1.134847 220.196051-0.037862L411.856186 310.515103c-4.307096 2.155083-8.56098 4.40738-12.716627 6.811126z" fill="#FF7612" p-id="6378"></path></svg>