<?xml version="1.0" standalone="no"?><!DOCTYPE svg PUBLIC "-//W3C//DTD SVG 1.1//EN" "http://www.w3.org/Graphics/SVG/1.1/DTD/svg11.dtd"><svg t="1510923320417" class="icon" style="" viewBox="0 0 1024 1024" version="1.1" xmlns="http://www.w3.org/2000/svg" p-id="9104" xmlns:xlink="http://www.w3.org/1999/xlink" width="16" height="16"><defs><style type="text/css"></style></defs><path d="M365.226667 663.893333c8.533333 1.706667 15.36 3.413333 23.893333 5.12 8.533333 1.706667 15.36 3.413333 23.893333 5.12 8.533333 1.706667 15.36 3.413333 23.893334 6.826667 8.533333 1.706667 17.066667 5.12 25.6 8.533333 6.826667 1.706667 15.36 5.12 22.186666 6.826667 3.413333 1.706667 6.826667 1.706667 8.533334 3.413333l10.24 3.413334c6.826667 1.706667 15.36 3.413333 22.186666 6.826666 30.72 8.533333 59.733333 13.653333 90.453334 18.773334 15.36 1.706667 30.72 3.413333 44.373333 5.12 5.12 0 10.24 0 15.36 1.706666 6.826667 0 11.946667-1.706667 15.36-6.826666 46.08-51.2 85.333333-95.573333 90.453333-102.4 17.066667-18.773333-6.826667-110.933333-6.826666-110.933334l134.826666-151.893333-20.48-17.066667 22.186667-23.893333c20.48 17.066667 32.426667 8.533333 46.08-6.826667 13.653333-17.066667 17.066667-32.426667 6.826667-42.666666l-78.506667-68.266667c-10.24-10.24-32.426667-8.533333-46.08 6.826667-13.653333 17.066667-17.066667 34.133333-6.826667 42.666666l-22.186666 23.893334-20.48-17.066667-129.706667 148.48s-93.866667-11.946667-110.933333 6.826667L336.213333 657.066667l-1.706666 1.706666c1.706667 0 5.12 0 6.826666 1.706667 8.533333 0 17.066667 1.706667 23.893334 3.413333z" p-id="9105" fill="#039BE5"></path><path d="M971.093333 701.44c-11.946667 6.826667-27.306667 15.36-44.373333 22.186667s-37.546667 15.36-59.733333 22.186666c-11.946667 3.413333-22.186667 6.826667-35.84 8.533334-11.946667 3.413333-25.6 5.12-37.546667 6.826666-13.653333 1.706667-27.306667 3.413333-40.96 3.413334-13.653333 0-27.306667 1.706667-42.666667 1.706666-13.653333 0-29.013333 0-44.373333-1.706666-15.36-1.706667-29.013333-3.413333-44.373333-5.12-30.72-5.12-59.733333-10.24-90.453334-18.773334-6.826667-1.706667-15.36-3.413333-22.186666-6.826666l-13.653334-3.413334c-3.413333-1.706667-6.826667-1.706667-11.946666-3.413333-8.533333-1.706667-15.36-5.12-23.893334-6.826667-8.533333-1.706667-15.36-5.12-23.893333-6.826666-8.533333-1.706667-15.36-5.12-23.893333-6.826667-8.533333-1.706667-15.36-3.413333-23.893334-5.12-8.533333-1.706667-15.36-3.413333-23.893333-5.12-8.533333-1.706667-15.36-3.413333-23.893333-3.413333-8.533333-1.706667-15.36-1.706667-23.893334-3.413334-8.533333-1.706667-15.36-1.706667-23.893333-1.706666-11.946667-5.12-25.6-5.12-40.96-5.12-29.013333 0-56.32 1.706667-81.92 5.12-25.6 3.413333-47.786667 8.533333-68.266667 15.36-18.773333 6.826667-35.84 13.653333-49.493333 22.186666-11.946667 6.826667-22.186667 15.36-27.306667 20.48l-8.533333 8.533334 10.24-5.12c6.826667-3.413333 17.066667-6.826667 30.72-10.24 13.653333-3.413333 30.72-6.826667 49.493333-8.533334 18.773333-1.706667 40.96-3.413333 64.853334-1.706666 23.893333 0 49.493333 3.413333 75.093333 6.826666 13.653333 1.706667 27.306667 5.12 40.96 6.826667l20.48 5.12 20.48 5.12c29.013333 6.826667 58.026667 15.36 87.04 25.6 6.826667 1.706667 15.36 5.12 22.186667 6.826667 6.826667 3.413333 15.36 5.12 22.186666 8.533333s17.066667 5.12 23.893334 8.533333c8.533333 1.706667 17.066667 5.12 23.893333 6.826667 17.066667 5.12 32.426667 8.533333 49.493333 11.946667l25.6 5.12c8.533333 1.706667 17.066667 1.706667 25.6 3.413333 34.133333 3.413333 66.56 5.12 98.986667 1.706667 15.36-1.706667 32.426667-3.413333 47.786667-5.12 15.36-3.413333 30.72-5.12 44.373333-10.24 13.653333-3.413333 27.306667-8.533333 40.96-13.653334 13.653333-5.12 25.6-10.24 37.546667-15.36 22.186667-11.946667 42.666667-23.893333 59.733333-35.84 17.066667-11.946667 29.013333-23.893333 39.253333-34.133333 10.24-10.24 17.066667-18.773333 22.186667-25.6 5.12-6.826667 6.826667-10.24 6.826667-10.24s-10.24 6.826667-34.133334 20.48z" p-id="9106" fill="#039BE5"></path></svg>