<?xml version="1.0" standalone="no"?><!DOCTYPE svg PUBLIC "-//W3C//DTD SVG 1.1//EN" "http://www.w3.org/Graphics/SVG/1.1/DTD/svg11.dtd"><svg t="1511178418195" class="icon" style="" viewBox="0 0 1024 1024" version="1.1" xmlns="http://www.w3.org/2000/svg" p-id="15122" xmlns:xlink="http://www.w3.org/1999/xlink" width="32" height="32"><defs><style type="text/css"></style></defs><path d="M702.267383 1024h-17.348745c-13.935877 0-120.587998-10.807415-170.643393-61.147216h-7.110141C459.66936 1012.908179 353.017239 1024 341.356607 1024q-124.854082 3.697274-173.487449-44.936093a81.908829 81.908829 0 0 1-25.596509-54.037075 118.028347 118.028347 0 0 1 60.009593-109.496177 593.554601 593.554601 0 0 1-34.128678-60.578404c-23.036858 28.440565-48.917773 50.339801-76.789527 41.523225-41.523226-13.08266-44.082876-82.47764-42.092037-122.863243a28.440565 28.440565 0 0 1 0-3.128462 401.86519 401.86519 0 0 1 103.239252-201.074798c-5.972519-77.642744 17.064339-113.762262 33.844273-129.973384C199.15378 64.984132 404.494663-2.988819 512 0.139643c107.220932-3.697274 312.84622 64.844489 325.360069 339.295946 16.779934 15.926717 40.101197 52.33064 33.844273 129.973384a401.86519 401.86519 0 0 1 103.523658 201.074798s11.091821 105.798904-38.963575 125.138488c-28.440565 11.091821-56.881131-9.954198-79.349177-40.670008a590.426139 590.426139 0 0 1-34.128679 60.578404A118.028347 118.028347 0 0 1 881.727351 925.026832a82.193234 82.193234 0 0 1-25.312103 53.468263c-29.578188 30.146999-81.624423 45.504905-154.147865 45.504905z m-206.1941-115.18429h32.137839a28.440565 28.440565 0 0 1 21.899236 11.376226c21.046018 29.862594 95.844706 46.358122 137.936742 49.77099 108.64296 3.412868 139.643176-28.440565 142.202828-46.642528 4.55049-50.624207-52.33064-71.101414-54.605886-71.95463a28.440565 28.440565 0 0 1-12.798255-41.523226A535.535848 535.535848 0 0 0 824.84622 690.107761a27.018537 27.018537 0 0 1 48.348961-4.834896A238.616344 238.616344 0 0 0 916.424841 739.594345a223.82725 223.82725 0 0 0 5.403707-62.569244A353.231823 353.231823 0 0 0 824.84622 499.271567a28.440565 28.440565 0 0 1-8.532169-23.036858c9.385387-81.624423-17.348745-99.257573-17.633151-99.257573a24.458886 24.458886 0 0 1-14.789094-23.321264C775.644042 50.76385 523.376226 53.607906 512 54.176718s-264.497259-3.412868-272.745023 299.76356a28.440565 28.440565 0 0 1-16.211122 23.890075s-25.312103 18.201962-16.211122 98.688762a28.440565 28.440565 0 0 1-8.53217 23.036858 352.947417 352.947417 0 0 0-96.413517 178.606751 220.698788 220.698788 0 0 0 5.688113 61.431621 237.478722 237.478722 0 0 0 42.092037-55.174697 27.018537 27.018537 0 0 1 48.348961 4.834896 540.370744 540.370744 0 0 0 65.128895 119.450375 27.018537 27.018537 0 0 1-12.798254 41.523226c-2.275245 0-59.156376 21.61483-54.605886 69.679385a28.440565 28.440565 0 0 1 0 3.412868c0 16.495528 32.137839 48.348961 142.202827 45.504905 40.954414-3.128462 115.468696-19.62399 136.514715-49.77099a28.440565 28.440565 0 0 1 21.330424-10.238603z" p-id="15123" fill="#0277BD"></path></svg>