<?xml version="1.0" standalone="no"?><!DOCTYPE svg PUBLIC "-//W3C//DTD SVG 1.1//EN" "http://www.w3.org/Graphics/SVG/1.1/DTD/svg11.dtd"><svg t="1511176803003" class="icon" style="" viewBox="0 0 1024 1024" version="1.1" xmlns="http://www.w3.org/2000/svg" p-id="6952" xmlns:xlink="http://www.w3.org/1999/xlink" width="32" height="32"><defs><style type="text/css"></style></defs><path d="M511.705799 991.19178c-64.710814 0-127.502929-12.68081-186.631608-37.690414-57.096393-24.150026-108.367103-58.715263-152.387689-102.735849s-78.586846-95.29232-102.735849-152.387689C44.939003 639.248126 32.258193 576.456011 32.258193 511.745197s12.68081-127.502929 37.690414-186.631608c24.150026-57.096393 58.715263-108.367103 102.735849-152.387689s95.29232-78.586846 152.387689-102.735849C384.20287 44.979424 446.993962 32.298614 511.705799 32.298614S639.207705 44.979424 698.338431 69.989027c57.095369 24.150026 108.36608 58.715263 152.387689 102.735849s78.586846 95.29232 102.735849 152.387689c25.009603 59.128679 37.690414 121.920794 37.690414 186.631608s-12.68081 127.502929-37.690414 186.632631c-24.150026 57.095369-58.715263 108.36608-102.735849 152.387689s-95.29232 78.586846-152.387689 102.735849C639.207705 978.511993 576.416614 991.19178 511.705799 991.19178zM511.705799 95.743598c-56.174394 0-110.650099 10.994402-161.916716 32.67826-49.533137 20.951171-94.025467 50.951439-132.240837 89.165786s-68.214614 82.706677-89.165786 132.240837c-21.683858 51.266617-32.67826 105.743346-32.67826 161.916716s10.994402 110.651123 32.67826 161.916716c20.951171 49.533137 50.951439 94.025467 89.165786 132.240837s82.706677 68.214614 132.240837 89.165786c51.266617 21.683858 105.743346 32.679283 161.916716 32.679283s110.651123-10.994402 161.916716-32.679283c49.533137-20.951171 94.025467-50.950416 132.240837-89.165786s68.214614-82.706677 89.165786-132.240837c21.683858-51.266617 32.679283-105.743346 32.679283-161.916716s-10.994402-110.650099-32.679283-161.916716c-20.951171-49.533137-50.950416-94.025467-89.165786-132.240837s-82.706677-68.214614-132.240837-89.165786C622.356922 106.738 567.87917 95.743598 511.705799 95.743598z" p-id="6953" fill="#0277BD"></path><path d="M511.705799 479.506958c-8.118911 0-16.236799-3.096525-22.430872-9.29162L297.392736 278.334169c-12.388145-12.388145-12.388145-32.473599 0-44.862767 12.388145-12.388145 32.473599-12.388145 44.862767 0l191.881169 191.882192c12.388145 12.388145 12.388145 32.473599 0 44.862767C527.942599 476.410434 519.823688 479.506958 511.705799 479.506958z" p-id="6954" fill="#0277BD"></path><path d="M511.705799 479.506958c-8.118911 0-16.236799-3.096525-22.430872-9.29162-12.388145-12.388145-12.388145-32.473599 0-44.862767L681.157119 233.471402c12.387122-12.388145 32.473599-12.388145 44.861744 0 12.388145 12.388145 12.388145 32.473599 0 44.862767L534.136671 470.216361C527.942599 476.410434 519.823688 479.506958 511.705799 479.506958z" p-id="6955" fill="#0277BD"></path><path d="M703.586968 479.506958 319.823608 479.506958c-17.520025 0-31.722492-14.202467-31.722492-31.722492s14.202467-31.722492 31.722492-31.722492l383.76336 0c17.520025 0 31.722492 14.202467 31.722492 31.722492S721.108017 479.506958 703.586968 479.506958z" p-id="6956" fill="#0277BD"></path><path d="M703.586968 607.42842 319.823608 607.42842c-17.520025 0-31.722492-14.202467-31.722492-31.722492s14.202467-31.722492 31.722492-31.722492l383.76336 0c17.520025 0 31.722492 14.202467 31.722492 31.722492S721.108017 607.42842 703.586968 607.42842z" p-id="6957" fill="#0277BD"></path><path d="M511.705799 863.271342c-17.520025 0-31.722492-14.202467-31.722492-31.722492L479.983307 447.784466c0-17.520025 14.202467-31.722492 31.722492-31.722492s31.722492 14.202467 31.722492 31.722492l0 383.76336C543.428292 849.068875 529.225825 863.271342 511.705799 863.271342z" p-id="6958" fill="#0277BD"></path></svg>