<?xml version="1.0" standalone="no"?><!DOCTYPE svg PUBLIC "-//W3C//DTD SVG 1.1//EN" "http://www.w3.org/Graphics/SVG/1.1/DTD/svg11.dtd"><svg t="1511178563726" class="icon" style="" viewBox="0 0 1024 1024" version="1.1" xmlns="http://www.w3.org/2000/svg" p-id="23310" xmlns:xlink="http://www.w3.org/1999/xlink" width="32" height="32"><defs><style type="text/css"></style></defs><path d="M1001.984 947.2H911.36V431.616c-1.536-48.64-41.472-88.576-91.136-88.576h-159.232c-50.176 0-92.672 41.472-92.672 92.16v512H22.016c-12.288 0-22.016 10.752-22.016 23.04s9.728 23.04 22.016 23.04h980.48c12.288 0 22.016-10.752 22.016-23.04s-10.24-23.04-22.528-23.04zM783.36 556.544c0 12.288-9.728 22.016-22.016 22.016h-43.52c-12.288 0-22.016-9.728-22.016-22.016V493.056c0-12.288 9.728-22.016 22.016-22.016h43.52c12.288 0 22.016 9.728 22.016 22.016v63.488z m0 194.56c0 12.288-9.728 22.016-22.016 22.016h-43.52c-12.288 0-22.016-9.728-22.016-22.016v-64c0-12.288 9.728-22.016 22.016-22.016h43.52c12.288 0 22.016 9.728 22.016 22.016v64z" p-id="23311" fill="#09b83e"></path><path d="M527.36 685.056c-5.12 0.512-3.072 1.024-4.608 1.024h-43.52c-12.288 0-23.552-10.752-23.552-22.528v-65.536c0-12.288 11.776-19.456 23.552-19.456h43.52c1.536 0-0.512-2.048 4.608-1.536V435.2c0-74.24 59.392-133.12 133.632-133.12h14.848V140.8C675.84 80.384 626.688 30.72 566.272 30.72H217.6C157.696 30.72 107.52 80.384 107.52 140.8V901.12h419.84v-216.064z m15.36-415.232c0 12.288-9.728 22.016-22.016 22.016h-43.52c-12.288 0-22.016-9.728-22.016-22.016V206.336c0-12.288 9.728-22.016 22.016-22.016h43.52c12.288 0 22.016 9.728 22.016 22.016v63.488z m-215.04 194.56c0 12.288-9.728 22.016-22.016 22.016h-43.52c-11.776 0-22.016-9.728-22.016-22.016V400.896c0-12.288 9.728-22.016 22.016-22.016h43.52c11.776 0 22.016 9.728 22.016 22.016v63.488z m0-194.56c0 12.288-9.728 22.016-22.016 22.016h-43.52c-11.776 0-22.016-9.728-22.016-22.016V206.336c0-12.288 9.728-22.016 22.016-22.016h43.52c11.776 0 22.016 9.728 22.016 22.016v63.488z" p-id="23312" fill="#09b83e"></path></svg>