<?xml version="1.0" standalone="no"?><!DOCTYPE svg PUBLIC "-//W3C//DTD SVG 1.1//EN" "http://www.w3.org/Graphics/SVG/1.1/DTD/svg11.dtd"><svg t="1511178313938" class="icon" style="" viewBox="0 0 1033 1024" version="1.1" xmlns="http://www.w3.org/2000/svg" p-id="14320" xmlns:xlink="http://www.w3.org/1999/xlink" width="32.28125" height="32"><defs><style type="text/css"></style></defs><path d="M840.598852 642.498464c-3.771123-66.255906-25.854532-130.445456-63.863931-185.629367L529.687552 98.221475c-9.360601-13.592703-24.79343-21.723713-41.283574-21.750217-0.02745 0-0.053954 0-0.081405 0-16.474053 0-31.914454 8.085576-41.347941 21.690584L199.361215 456.748882c-38.079445 55.146995-60.23006 119.320454-64.05987 185.582039-3.615886 62.565241 8.953578 125.658666 36.349121 182.460261 26.296579 54.523208 65.486347 101.375436 113.332471 135.490658 51.037948 36.391716 111.780101 57.917597 175.660123 62.248141 8.954524 0.606749 18.119186 0.914384 27.237466 0.914384 9.122066 0 18.279156-0.307634 27.209069-0.914384 63.861091-4.322972 124.595672-25.829921 175.637406-62.194187 47.851803-34.092505 87.059556-80.916336 113.385478-135.413986C831.543045 768.142932 844.159837 705.062758 840.598852 642.498464zM749.566554 798.569382c-21.90924 45.350973-54.409619 84.226481-93.989373 112.424713-42.507486 30.285412-91.151565 47.475069-144.583381 51.092849-15.151698 1.028918-31.059704 1.028918-46.253051 0-53.437495-3.622512-102.083468-20.826368-144.586221-51.131658-39.572181-28.217163-72.056469-67.112549-93.938259-112.482453-22.934373-47.550795-33.458305-100.336105-30.435916-152.648132 3.188984-55.170659 21.665026-108.649803 53.430869-154.654854L488.299855 144.929825l238.545304 346.304388c31.709996 46.039127 50.13019 99.53531 53.269953 154.706915C783.093958 698.255995 772.53027 751.033733 749.566554 798.569382z" p-id="14321" fill="#09b83e"></path><path d="M643.083442 570.534759 497.609341 570.534759c-6.253022 0-10.903506-5.646272-9.797915-11.801798l23.609275-134.508122c1.805103-10.235229-11.205461-16.151273-17.724468-8.095988L296.31145 659.398471c-5.349997 6.586213-0.663543 16.421991 7.795926 16.421991l151.126052 0c6.254915 0 11.002895 5.644379 9.902984 11.799905l-22.004844 125.379429c-1.806996 10.235229 11.198835 16.151273 17.722575 8.091255l189.989255-234.134302C656.193395 580.370537 651.580774 570.534759 643.083442 570.534759z" p-id="14322" fill="#09b83e"></path></svg>