<?xml version="1.0" standalone="no"?><!DOCTYPE svg PUBLIC "-//W3C//DTD SVG 1.1//EN" "http://www.w3.org/Graphics/SVG/1.1/DTD/svg11.dtd"><svg t="1511177827734" class="icon" style="" viewBox="0 0 1024 1024" version="1.1" xmlns="http://www.w3.org/2000/svg" p-id="12404" xmlns:xlink="http://www.w3.org/1999/xlink" width="32" height="32"><defs><style type="text/css"></style></defs><path d="M959.936 540.096c0-111.36-88.128-213.376-191.104-213.376-46.144 0-90.368 30.272-123.008 60.288-22.144 20.416-163.392 112.832-225.408 115.328-134.08 5.44-255.744-59.648-293.504-191.552 0 0-17.152-33.28-19.52-88-0.512-22.144-16-20.992-23.488-1.216-2.752 7.04-16.384 26.496-18.88 69.952a566.72 566.72 0 0 0-0.448 60.48c11.392 287.232 237.632 519.616 503.232 507.392 134.528-6.272 251.904-81.088 335.36-181.312 1.6-1.728 3.008-3.648 4.48-5.504 28.544-35.584 52.288-81.984 52.288-132.48zM371.2 165.056c88.512-9.344 166.848 57.472 174.976 142.144 2.112 22.4-0.256 42.432-7.488 62.592-66.112 73.664-174.656 69.376-174.656 66.944-84.096-8.832-116.992-48.96-136.832-84.352a158.784 158.784 0 0 1-1.536-11.072c-8-84.736 57.024-166.784 145.536-176.256z" fill="#0277BD" p-id="12405"></path></svg>