<?xml version="1.0" standalone="no"?><!DOCTYPE svg PUBLIC "-//W3C//DTD SVG 1.1//EN" "http://www.w3.org/Graphics/SVG/1.1/DTD/svg11.dtd"><svg t="1511176408930" class="icon" style="" viewBox="0 0 1024 1024" version="1.1" xmlns="http://www.w3.org/2000/svg" p-id="2406" xmlns:xlink="http://www.w3.org/1999/xlink" width="32" height="32"><defs><style type="text/css"></style></defs><path d="M102.4 102.4h819.2c56.32 0 102.4 46.08 102.4 102.4v614.4c0 56.32-46.08 102.4-102.4 102.4H102.4c-56.32 0-102.4-46.08-102.4-102.4V204.8c0-56.32 46.08-102.4 102.4-102.4z m0 51.2c-30.72 0-51.2 20.48-51.2 51.2v614.4c0 30.72 20.48 51.2 51.2 51.2h819.2c30.72 0 51.2-20.48 51.2-51.2V204.8c0-30.72-20.48-51.2-51.2-51.2H102.4z m51.2 153.6h716.8v51.2H153.6V307.2z m563.2 358.4h153.6v51.2h-153.6v-51.2z" p-id="2407" fill="#09b83e"></path></svg>