<?xml version="1.0" standalone="no"?><!DOCTYPE svg PUBLIC "-//W3C//DTD SVG 1.1//EN" "http://www.w3.org/Graphics/SVG/1.1/DTD/svg11.dtd"><svg t="1511167709062" class="icon" style="" viewBox="0 0 1024 1024" version="1.1" xmlns="http://www.w3.org/2000/svg" p-id="3356" xmlns:xlink="http://www.w3.org/1999/xlink" width="32" height="32"><defs><style type="text/css"></style></defs><path d="M845.386508 851.54323l-667.482167 0c-63.10627 0-114.449635-51.342342-114.449635-114.451682L63.454706 286.906405c0-63.108317 51.342342-114.449635 114.449635-114.449635l667.482167 0c63.105247 0 114.448612 51.341319 114.448612 114.449635l0 450.185142C959.83512 800.200888 908.491755 851.54323 845.386508 851.54323zM177.904341 219.953528c-36.918841 0-66.952878 30.03506-66.952878 66.953901l0 450.185142c0 36.920888 30.03506 66.955948 66.952878 66.955948l667.482167 0c36.917818 0 66.952878-30.03506 66.952878-66.955948L912.339386 286.906405c0-36.918841-30.03506-66.953901-66.952878-66.953901L177.904341 219.952504z" p-id="3357" fill="#ffffff"></path><path d="M822.661947 322.447876" p-id="3358" fill="#ffffff"></path><path d="M208.868563 322.447876" p-id="3359" fill="#ffffff"></path><path d="M822.661947 432.055227" p-id="3360" fill="#ffffff"></path><path d="M208.868563 432.055227" p-id="3361" fill="#ffffff"></path><path d="M829.184501 422.230464 202.172047 422.230464c-13.115716 0-23.74889-10.632151-23.74889-23.74889 0-13.114692 10.633175-23.747867 23.74889-23.747867l627.012454 0c13.115716 0 23.747867 10.633175 23.747867 23.747867C852.932368 411.598312 842.300216 422.230464 829.184501 422.230464z" p-id="3362" fill="#ffffff"></path></svg>