<?xml version="1.0" standalone="no"?><!DOCTYPE svg PUBLIC "-//W3C//DTD SVG 1.1//EN" "http://www.w3.org/Graphics/SVG/1.1/DTD/svg11.dtd"><svg t="1510277212921" class="icon" style="" viewBox="0 0 1024 1024" version="1.1" xmlns="http://www.w3.org/2000/svg" p-id="6150" xmlns:xlink="http://www.w3.org/1999/xlink" width="26" height="26"><defs><style type="text/css"></style></defs><path d="M150.208 966.848l14.208-194.24C59.776 694.656 0 584.896 0 469.696 0 242.176 229.696 57.152 512 57.152s512 185.088 512 412.544-229.696 412.48-512 412.48a622.4 622.4 0 0 1-167.488-22.592l-194.304 107.264zM512 102.656C254.784 102.656 45.504 267.264 45.504 469.632c0 103.936 56.704 203.648 155.648 273.344l10.56 7.424-9.984 136 137.344-75.776 9.152 2.688c52.416 15.488 107.52 23.36 163.776 23.36 257.216 0 466.496-164.608 466.496-366.976S769.216 102.656 512 102.656z" p-id="6151" fill="#cdcdcd"></path></svg>