<?xml version="1.0" standalone="no"?><!DOCTYPE svg PUBLIC "-//W3C//DTD SVG 1.1//EN" "http://www.w3.org/Graphics/SVG/1.1/DTD/svg11.dtd"><svg t="1510278234890" class="icon" style="" viewBox="0 0 1024 1024" version="1.1" xmlns="http://www.w3.org/2000/svg" p-id="8107" xmlns:xlink="http://www.w3.org/1999/xlink" width="26" height="26"><defs><style type="text/css"></style></defs><path d="M805.632 923.84H65.024A65.536 65.536 0 0 1 0 859.072c-0.064-6.912 6.592-30.72 13.888-40.128 39.36-59.584 178.112-125.632 260.992-165.056 24.512-11.712 45.696-21.76 52.736-26.368a47.872 47.872 0 0 0 19.52-30.656 45.12 45.12 0 0 0-8.576-35.456c-6.4-8.64-13.184-17.408-20.096-26.368-38.72-49.92-82.624-106.56-82.624-187.968 0-136.192 89.472-246.912 199.488-246.912s199.488 110.72 199.488 246.912c0 92.16-54.592 156.416-98.368 208l-7.552 8.896c-2.816 3.904-6.464 20.736-5.184 31.36 4.416 36.352 69.888 94.016 206.272 140.608 73.088 24.96 118.528 57.408 135.04 96.64 0.576 1.152 1.92 3.968 2.496 7.808 4.416 31.872-5.952 51.52-15.424 62.336a61.824 61.824 0 0 1-46.464 21.12zM39.744 859.968a25.344 25.344 0 0 0 25.28 24.192h740.608a22.08 22.08 0 0 0 16.512-7.552c5.504-6.272 7.68-16.128 6.272-28.672-8.384-17.92-32.96-47.616-111.296-74.368-140.48-48-225.344-111.232-232.832-173.44-1.984-16.512 1.856-47.104 14.272-61.824l7.616-8.96c43.712-51.52 88.96-104.704 88.96-182.336 0-114.24-71.68-207.232-159.808-207.232S275.584 232.832 275.584 347.072c0 67.904 37.76 116.544 74.304 163.648 7.104 9.216 14.08 18.24 20.672 27.2 14.336 19.584 19.904 43.008 15.68 66.112a87.488 87.488 0 0 1-36.928 56.768c-9.28 6.016-29.44 15.616-57.344 28.864-73.984 35.264-211.712 100.8-245.824 152.448-2.176 3.392-5.376 13.44-6.4 17.856zM743.04 339.264H1024v39.68h-280.96zM804.736 492.096H1024v39.68h-219.264zM870.912 641.536H1024v39.744h-153.088z" p-id="8108" fill="#cdcdcd"></path></svg>