<?xml version="1.0" standalone="no"?><!DOCTYPE svg PUBLIC "-//W3C//DTD SVG 1.1//EN" "http://www.w3.org/Graphics/SVG/1.1/DTD/svg11.dtd"><svg t="1510277938736" class="icon" style="" viewBox="0 0 1024 1024" version="1.1" xmlns="http://www.w3.org/2000/svg" p-id="6955" xmlns:xlink="http://www.w3.org/1999/xlink" width="26" height="26"><defs><style type="text/css"></style></defs><path d="M512 0C229.696 0 0 229.696 0 512s229.696 512 512 512 512-229.696 512-512-229.696-512-512-512zM44.352 512C44.352 254.208 254.144 44.352 512 44.352c137.088 0 260.544 59.264 346.112 153.472L403.968 443.072l-224.256 397.632A466.24 466.24 0 0 1 44.352 512z m692.736-198.336L566.272 569.92 288.64 737.856l147.712-261.888 300.736-162.304zM512 979.648a466.176 466.176 0 0 1-322.88-129.664l408.576-247.168 265.856-398.72A465.024 465.024 0 0 1 979.648 512c0 257.792-209.792 467.648-467.648 467.648z" p-id="6956" fill="#cdcdcd"></path><path d="M507.392 524.224m-44.416 0a44.416 44.416 0 1 0 88.832 0 44.416 44.416 0 1 0-88.832 0Z" p-id="6957" fill="#cdcdcd"></path></svg>