<?xml version="1.0" standalone="no"?><!DOCTYPE svg PUBLIC "-//W3C//DTD SVG 1.1//EN" "http://www.w3.org/Graphics/SVG/1.1/DTD/svg11.dtd"><svg t="1510278373951" class="icon" style="" viewBox="0 0 1024 1024" version="1.1" xmlns="http://www.w3.org/2000/svg" p-id="9829" xmlns:xlink="http://www.w3.org/1999/xlink" width="26" height="26"><defs><style type="text/css"></style></defs><path d="M949.824 997.632H76.608c-41.792 0-76.16-34.368-76.608-76.352-0.064-8.128 7.808-36.224 16.384-47.36 46.336-70.144 209.984-148.032 307.712-194.624 28.864-13.76 53.824-25.6 62.208-30.976a56.96 56.96 0 0 0 22.976-36.096 52.864 52.864 0 0 0-10.176-41.728c-7.488-10.496-15.488-20.736-23.68-31.232-45.632-58.88-97.408-125.632-97.408-221.632 0-160.64 105.536-291.264 235.2-291.264s235.2 130.624 235.2 291.264c0 108.608-64.32 184.384-115.968 245.248l-8.832 10.368c-3.328 4.608-7.616 24.512-6.144 36.992 5.184 42.88 82.368 110.848 243.136 165.76 86.144 29.504 139.712 67.776 159.232 113.984a27.008 27.008 0 0 1 2.88 9.152c5.184 37.632-7.04 60.736-18.176 73.472a72.448 72.448 0 0 1-54.72 25.024zM46.848 922.24a29.76 29.76 0 0 0 29.76 28.48h873.216a26.24 26.24 0 0 0 19.456-8.896c6.464-7.36 9.024-19.008 7.424-33.856-9.92-21.12-38.848-56.128-131.2-87.616-165.632-56.64-265.664-131.136-274.56-204.48-2.304-19.392 2.24-55.488 16.896-72.896l8.96-10.496c51.584-60.608 104.896-123.392 104.896-214.848 0-134.72-84.544-244.352-188.352-244.352-103.872 0-188.352 109.632-188.352 244.352 0 80 44.544 137.344 87.552 192.896 8.448 10.88 16.704 21.504 24.448 32.128 16.768 22.976 23.296 50.688 18.368 77.824-5.056 27.52-21.312 52.48-43.52 67.008-10.944 7.104-34.688 18.368-67.584 34.112-87.232 41.472-249.6 118.72-289.856 179.648-2.56 4.032-6.4 15.872-7.552 20.992z" p-id="9830" fill="#cdcdcd"></path></svg>