<?xml version="1.0" standalone="no"?><!DOCTYPE svg PUBLIC "-//W3C//DTD SVG 1.1//EN" "http://www.w3.org/Graphics/SVG/1.1/DTD/svg11.dtd"><svg t="1511013265409" class="icon" style="" viewBox="0 0 1024 1024" version="1.1" xmlns="http://www.w3.org/2000/svg" p-id="1052" xmlns:xlink="http://www.w3.org/1999/xlink" width="32" height="32"><defs><style type="text/css"></style></defs><path d="M850.395942 762.159883zM156.610978 868.347475s-5.293385-80.237599 16.895775-105.029664c29.487026-32.944998 92.653701-61.990502 154.933685-83.991134 62.283633-21.926437 97.627196-57.091202 97.627196-76.873283 0-19.755322-13.869593-85.616126-39.642006-92.196368-25.772412-6.600919-40.809664-81.276328-40.809664-103.235605 0-21.965359 12.894112-15.36444 12.894112-15.36444s-19.369751-62.63758 2.139491-133.968133c31.255542-103.590768 150.545235-100.925831 150.977026-100.911236 0.430574-0.014596 124.20359-2.683182 151.894123 100.911236 19.240822 71.956954 2.134626 133.968134 2.134626 133.968133s12.879516-6.600919 12.879516 15.36444c0 21.962926-15.012926 96.634686-40.750064 103.235605-25.734706 6.580242-41.762035 72.441046-41.762036 92.196368 0 19.782081 37.481837 54.948062 99.668166 76.873283 62.189977 22.000632 138.907572 53.123596 154.692855 83.991134 15.095635 29.476079 16.855637 105.029664 16.855637 105.029664H156.610978m0 0z" fill="#00cc00" p-id="1053"></path></svg>